<svg height="512" viewBox="0 0 64 64" width="512" xmlns="http://www.w3.org/2000/svg" xmlns:xlink="http://www.w3.org/1999/xlink"><linearGradient id="New_Gradient_Swatch_3" gradientUnits="userSpaceOnUse" x1="33" x2="33" y1="63.876" y2="-.342"><stop offset="0" stop-color="#006df0"/><stop offset="1" stop-color="#00e7f0"/></linearGradient><linearGradient id="New_Gradient_Swatch_3-2" x1="23.5" x2="23.5" xlink:href="#New_Gradient_Swatch_3" y1="63.876" y2="-.342"/><linearGradient id="New_Gradient_Swatch_3-5" x1="39" x2="39" xlink:href="#New_Gradient_Swatch_3" y1="63.876" y2="-.342"/><linearGradient id="New_Gradient_Swatch_3-7" x1="35.5" x2="35.5" xlink:href="#New_Gradient_Swatch_3" y1="63.876" y2="-.342"/><linearGradient id="New_Gradient_Swatch_3-8" x1="37" x2="37" xlink:href="#New_Gradient_Swatch_3" y1="63.876" y2="-.342"/><g id="Contact_form" data-name="Contact form"><path d="m47 14h-28a1 1 0 0 1 -1-1v-6a1 1 0 0 1 1-1h28a1 1 0 0 1 1 1v6a1 1 0 0 1 -1 1zm-27-2h26v-4h-26z" fill="url(#New_Gradient_Swatch_3)"/><g fill="url(#New_Gradient_Swatch_3-2)"><path d="m19 25h6a1 1 0 0 0 0-2h-5v-4h4.586l-1.586 1.586-1.293-1.293a1 1 0 1 0 -1.414 1.414l2 2a1 1 0 0 0 1.414 0l5-5a1 1 0 0 0 -1.414-1.414l-1.362 1.362a1 1 0 0 0 -.931-.655h-6a1 1 0 0 0 -1 1v6a1 1 0 0 0 1 1z"/><path d="m27.293 26.293-1.362 1.362a1 1 0 0 0 -.931-.655h-6a1 1 0 0 0 -1 1v6a1 1 0 0 0 1 1h6a1 1 0 0 0 0-2h-5v-4h4.586l-1.586 1.586-1.293-1.293a1 1 0 1 0 -1.414 1.414l2 2a1 1 0 0 0 1.414 0l5-5a1 1 0 0 0 -1.414-1.414z"/><path d="m27.293 36.293-1.362 1.362a1 1 0 0 0 -.931-.655h-6a1 1 0 0 0 -1 1v6a1 1 0 0 0 1 1h6a1 1 0 0 0 0-2h-5v-4h4.586l-1.586 1.586-1.293-1.293a1 1 0 1 0 -1.414 1.414l2 2a1 1 0 0 0 1.414 0l5-5a1 1 0 0 0 -1.414-1.414z"/></g><path d="m47 25h-16a1 1 0 0 1 0-2h16a1 1 0 0 1 0 2z" fill="url(#New_Gradient_Swatch_3-5)"/><path d="m47 25h-16a1 1 0 0 1 0-2h16a1 1 0 0 1 0 2z" fill="url(#New_Gradient_Swatch_3-5)"/><path d="m40 35h-9a1 1 0 0 1 0-2h9a1 1 0 0 1 0 2z" fill="url(#New_Gradient_Swatch_3-7)"/><path d="m59.364 34.12-5.364-5.364v-25.756a1 1 0 0 0 -1-1h-40a1 1 0 0 0 -1 1v47a1 1 0 0 0 1 1h28.874a10.908 10.908 0 0 0 1.726 7.693l.4.608v1.699a1 1 0 0 0 2 0v-2a1 1 0 0 0 -.167-.553l-.572-.863a8.915 8.915 0 0 1 -1.356-6.584h3.411a7.3 7.3 0 0 0 1.437 3.049l.47.58a1 1 0 1 0 1.554-1.258l-.465-.575a5.3 5.3 0 0 1 .1-6.746 1 1 0 0 0 -.053-1.357l-5.249-5.247a2.022 2.022 0 0 1 -.008-2.833 2.071 2.071 0 0 1 2.841-.006l7.07 7.07a1 1 0 0 0 1.414-1.414l-2.427-2.427v-8.252l3.95 3.95a6.959 6.959 0 0 1 2.05 4.95v13.7a4.979 4.979 0 0 1 -.84 2.774l-.653.981a2.985 2.985 0 0 0 -.5 1.678l.007 1.389a1 1 0 0 0 1 .995h.005a1 1 0 0 0 .991-1.001l-.01-1.394a1.006 1.006 0 0 1 .168-.56l.653-.98a6.969 6.969 0 0 0 1.179-3.883v-13.7a8.941 8.941 0 0 0 -2.636-6.363zm-10.013 1.067a4.1 4.1 0 0 0 -5.661.009 4.032 4.032 0 0 0 0 5.661l4.641 4.643a7.243 7.243 0 0 0 -1.148 3.5h-33.183v-45h38v33.836z" fill="url(#New_Gradient_Swatch_3-8)"/><path d="m30 44a1 1 0 0 0 1 1h12a1 1 0 0 0 0-2h-12a1 1 0 0 0 -1 1z" fill="url(#New_Gradient_Swatch_3-8)"/><path d="m47 21h-16a1 1 0 0 1 0-2h16a1 1 0 0 1 0 2z" fill="url(#New_Gradient_Swatch_3-5)"/><path d="m47 31h-16a1 1 0 0 1 0-2h16a1 1 0 0 1 0 2z" fill="url(#New_Gradient_Swatch_3-5)"/><path d="m40 41h-9a1 1 0 0 1 0-2h9a1 1 0 0 1 0 2z" fill="url(#New_Gradient_Swatch_3-7)"/></g></svg>