<svg height="512" viewBox="0 0 64 64" width="512" xmlns="http://www.w3.org/2000/svg" xmlns:xlink="http://www.w3.org/1999/xlink"><linearGradient id="New_Gradient_Swatch_3" gradientUnits="userSpaceOnUse" x1="32.08" x2="32.08" y1="62.451" y2="5.013"><stop offset="0" stop-color="#006df0"/><stop offset="1" stop-color="#00e7f0"/></linearGradient><linearGradient id="New_Gradient_Swatch_3-2" x1="42.5" x2="42.5" xlink:href="#New_Gradient_Swatch_3" y1="62.451" y2="5.013"/><linearGradient id="New_Gradient_Swatch_3-3" x1="21.5" x2="21.5" xlink:href="#New_Gradient_Swatch_3" y1="62.451" y2="5.013"/><g id="Comtact"><path d="m62.447 28.047-19.8-19.8a1.029 1.029 0 0 0 -1.414 0l-5.657 5.657a1 1 0 0 0 0 1.414l.542.542-5.868 1.4-2.35-2.273.691-.69a1 1 0 0 0 0-1.414l-5.66-5.66a1 1 0 0 0 -1.414 0l-19.8 19.8a1 1 0 0 0 0 1.414l5.66 5.66a1 1 0 0 0 1.414 0l.718-.718 4.816 4.616-.254.254a4 4 0 0 0 2.829 6.817c.09 0 .178-.02.267-.026-.006.091-.027.179-.027.27a4 4 0 0 0 4 4c.089 0 .177-.019.266-.025-.006.09-.026.178-.026.269a3.956 3.956 0 0 0 4.982 3.87 3.959 3.959 0 0 0 3.968 3.664 4.016 4.016 0 0 0 2.748-1.1l.335.318a3.973 3.973 0 0 0 2.827 1.174 4.02 4.02 0 0 0 2.824-1.17 3.942 3.942 0 0 0 1.148-2.5 3.9 3.9 0 0 0 3.8-1.035 3.943 3.943 0 0 0 1.149-2.5 4.024 4.024 0 0 0 .977.133 3.978 3.978 0 0 0 3.972-3.667 3.952 3.952 0 0 0 .978.137 4.005 4.005 0 0 0 2.815-6.849l-2.472-2.38 3.238-3.238.7.705a1 1 0 0 0 1.415 0l5.656-5.657a1 1 0 0 0 .007-1.412zm-54.367 3.929-4.246-4.246 18.386-18.386 4.246 4.246zm7.413 10.513a1.993 1.993 0 0 1 -.005-2.832l5.659-5.657a2 2 0 0 1 2.82-.006 1.994 1.994 0 0 1 .006 2.832l-5.66 5.66a2 2 0 0 1 -2.82.003zm4.24 4.24a1.994 1.994 0 0 1 -.006-2.832l7.07-7.07a2 2 0 0 1 2.832.006 1.97 1.97 0 0 1 -.006 2.82l-7.07 7.07a2 2 0 0 1 -2.82.006zm7.07 4.234a2.046 2.046 0 0 1 -2.83.006 1.994 1.994 0 0 1 -.006-2.832l5.66-5.66a2 2 0 0 1 2.82-.006 2.005 2.005 0 0 1 .006 2.841zm4.953 3.537a2.016 2.016 0 0 1 -2.839 0 1.994 1.994 0 0 1 0-2.826l4.252-4.252a2 2 0 0 1 2.818 0 2.032 2.032 0 0 1 .593 1.43 1.9 1.9 0 0 1 -.232.908c-.016.032-.031.063-.044.095a1.857 1.857 0 0 1 -.311.41zm5.9.393a2.053 2.053 0 0 1 -2.843-.017l-.309-.293 2.831-2.831.343.341a1.977 1.977 0 0 1 -.022 2.8zm14.853-10.606a2.046 2.046 0 0 1 -2.832.005l-3.15-3.149a1 1 0 0 0 -1.414 1.414l2.442 2.443a1.981 1.981 0 0 1 -.01 2.829 2.037 2.037 0 0 1 -2.819-.006l-.71-.71-1.73-1.73a1 1 0 0 0 -1.413 1.417l1.73 1.73a2 2 0 0 1 .592 1.426 1.976 1.976 0 0 1 -.592 1.41 2.041 2.041 0 0 1 -2.826 0l-1.4-1.39a3.729 3.729 0 0 0 .2-1.123 4.023 4.023 0 0 0 -1.173-2.837 3.957 3.957 0 0 0 -2.5-1.139 3.984 3.984 0 0 0 -3.1-4.906 3.922 3.922 0 0 0 -.772-4.555 3.99 3.99 0 0 0 -4.552-.762 4 4 0 0 0 -6.752-2.068l-4 4-4.816-4.616.088-.087 15.482-15.483 1.918 1.856-5.13 5.131a3.992 3.992 0 0 0 -.007 5.66 4.1 4.1 0 0 0 5.654 0l4.553-4.553a1 1 0 0 1 1.4-.013l17.63 16.973a2 2 0 0 1 .009 2.833zm.747-11.287-3.264 3.264-13.735-13.224a3.015 3.015 0 0 0 -4.2.04l-4.557 4.553a2.044 2.044 0 0 1 -2.832-.007 1.993 1.993 0 0 1 .006-2.819l5.368-5.368a1 1 0 0 0 .557-.2l7.177-1.715zm2.827 0-18.383-18.388 4.243-4.243 18.383 18.385z" fill="url(#New_Gradient_Swatch_3)"/><path d="m43 17a1 1 0 0 1 -.707-.293l-1-1a1 1 0 0 1 1.414-1.414l1 1a1 1 0 0 1 -.707 1.707z" fill="url(#New_Gradient_Swatch_3-2)"/><path d="m21 16a1 1 0 0 1 -.707-1.707l1-1a1 1 0 0 1 1.414 1.414l-1 1a1 1 0 0 1 -.707.293z" fill="url(#New_Gradient_Swatch_3-3)"/></g></svg>