<svg height="512.0011pt" viewBox="0 0 512.0011 512.0011" width="512.0011pt" xmlns="http://www.w3.org/2000/svg" xmlns:xlink="http://www.w3.org/1999/xlink"><linearGradient id="a"><stop offset="0" stop-color="#662d91"/><stop offset=".437" stop-color="#3873b3"/><stop offset="1" stop-color="#00c9dd"/></linearGradient><linearGradient id="b" gradientTransform="matrix(1.099725 0 0 -1.099725 0 504.202951)" gradientUnits="userSpaceOnUse" x1="-49.3029" x2="344.8804" xlink:href="#a" y1="339.3424" y2="-54.8331"/><linearGradient id="c" gradientTransform="matrix(1.099725 0 0 -1.099725 0 504.202951)" gradientUnits="userSpaceOnUse" x1="166.8296" x2="561.0052" xlink:href="#a" y1="555.4749" y2="161.2993"/><linearGradient id="d" gradientTransform="matrix(1.099725 0 0 -1.099725 0 504.202951)" gradientUnits="userSpaceOnUse" x1="11.6393" x2="405.8149" xlink:href="#a" y1="400.2846" y2="6.109"/><linearGradient id="e" gradientTransform="matrix(1.099725 0 0 -1.099725 0 504.202951)" gradientUnits="userSpaceOnUse" x1="-3.8798" x2="390.2958" xlink:href="#a" y1="384.7656" y2="-9.41"/><linearGradient id="f" gradientTransform="matrix(1.099725 0 0 -1.099725 0 504.202951)" gradientUnits="userSpaceOnUse" x1="-27.1583" x2="367.0173" xlink:href="#a" y1="361.487" y2="-32.6886"/><linearGradient id="g" gradientTransform="matrix(1.099725 0 0 -1.099725 0 504.202951)" gradientUnits="userSpaceOnUse" x1="-1.9399" x2="392.2357" xlink:href="#a" y1="386.7054" y2="-7.4701"/><linearGradient id="h" gradientTransform="matrix(1.099725 0 0 -1.099725 0 504.202951)" gradientUnits="userSpaceOnUse" x1="-17.4589" x2="376.7167" xlink:href="#a" y1="371.1865" y2="-22.9892"/><linearGradient id="i" gradientTransform="matrix(1.099725 0 0 -1.099725 0 504.202951)" gradientUnits="userSpaceOnUse" x1="-40.7374" x2="353.4381" xlink:href="#a" y1="347.9079" y2="-46.2677"/><path d="m352.425781 290.132812c-4.710937 0-8.53125 3.820313-8.53125 8.535157 0 20.894531-16.9375 37.839843-37.832031 37.839843-20.898438.003907-37.839844-16.933593-37.84375-37.832031 0-.003906 0-.007812 0-.011719 0-4.710937-3.820312-8.53125-8.53125-8.53125h-37.820312v-30.839843c30.457031-4.730469 51.308593-33.253907 46.578124-63.710938-3.726562-24.015625-22.566406-42.851562-46.578124-46.582031v-55.132812c0-4.710938-3.820313-8.535157-8.535157-8.535157h-204.796875c-4.714844 0-8.535156 3.820313-8.535156 8.535157v409.601562c0 4.710938 3.820312 8.53125 8.535156 8.53125h409.597656c4.714844 0 8.535157-3.820312 8.535157-8.53125v-213.335938zm-335.359375-187.734374h187.734375v54.488281c0 4.710937 3.820313 8.53125 8.53125 8.53125 21.390625.320312 38.472657 17.917969 38.15625 39.304687-.3125 20.941406-17.210937 37.84375-38.15625 38.152344-4.710937 0-8.53125 3.820312-8.53125 8.535156v38.726563h-30.839843c-4.730469-30.457031-33.257813-51.3125-63.714844-46.582031-24.011719 3.730468-42.847656 22.566406-46.578125 46.582031h-46.601563zm0 204.800781h54.484375c4.714844 0 8.535157-3.820313 8.535157-8.53125.550781-21.390625 18.335937-38.285157 39.726562-37.734375 20.613281.53125 37.199219 17.117187 37.730469 37.734375 0 4.710937 3.820312 8.53125 8.535156 8.53125h38.722656v29.945312c-29.96875 4.160157-50.890625 31.828125-46.730469 61.796875 3.371094 24.277344 22.457032 43.359375 46.730469 46.730469v49.261719h-187.734375zm392.535156 187.734375h-187.734374v-57.171875c0-4.714844-3.820313-8.535157-8.535157-8.535157-20.898437-.003906-37.835937-16.945312-37.832031-37.84375.003906-20.890624 16.941406-37.828124 37.832031-37.828124 4.710938 0 8.535157-3.824219 8.535157-8.535157v-37.820312h29.960937c4.707031 29.960937 32.808594 50.429687 62.769531 45.722656 23.550782-3.699219 42.019532-22.171875 45.722656-45.722656h49.277344v187.734375zm0 0" fill="url(#b)"/><path d="m503.464844 0h-204.796875c-4.714844 0-8.535157 3.820312-8.535157 8.535156v63.015625c0 4.714844 3.820313 8.535157 8.535157 8.535157 21.386719.550781 38.28125 18.335937 37.730469 39.726562-.527344 20.613281-17.117188 37.199219-37.730469 37.730469-4.714844 0-8.535157 3.820312-8.535157 8.535156v47.257813c0 4.710937 3.820313 8.53125 8.535157 8.53125h38.476562c4.160157 29.96875 31.828125 50.890624 61.796875 46.730468 24.277344-3.371094 43.359375-22.453125 46.730469-46.730468h57.796875c4.710938 0 8.53125-3.820313 8.53125-8.53125v-204.800782c0-4.714844-3.820312-8.535156-8.535156-8.535156zm-8.53125 204.800781h-57.171875c-4.714844 0-8.535157 3.820313-8.535157 8.53125.445313 20.898438-16.136718 38.199219-37.035156 38.640625-20.894531.445313-38.195312-16.136718-38.636718-37.03125-.011719-.535156-.011719-1.074218 0-1.609375 0-4.710937-3.824219-8.53125-8.535157-8.53125h-37.820312v-30.867187c30.441406-5.28125 50.839843-34.242188 45.558593-64.683594-4.039062-23.285156-22.273437-41.519531-45.558593-45.558594v-46.625h187.734375zm0 0" fill="url(#c)"/><path d="m42.667969 119.464844h68.265625v17.066406h-68.265625zm0 0" fill="url(#d)"/><path d="m42.667969 153.601562h68.265625v17.066407h-68.265625zm0 0" fill="url(#e)"/><path d="m42.667969 187.734375h34.132812v17.066406h-34.132812zm0 0" fill="url(#f)"/><path d="m273.066406 384h76.800782v17.066406h-76.800782zm0 0" fill="url(#g)"/><path d="m273.066406 418.132812h76.800782v17.066407h-76.800782zm0 0" fill="url(#h)"/><path d="m273.066406 452.265625h42.667969v17.066406h-42.667969zm0 0" fill="url(#i)"/></svg>